<svg xmlns="http://www.w3.org/2000/svg" viewBox="0 0 133.18 144.1"><title>Asset 4</title><g id="Layer_2" data-name="Layer 2"><g id="Layer_2-2" data-name="Layer 2"><rect width="133.18" height="143.16" style="fill:#e2ded9;opacity:0"/></g><g id="Layer_1-2" data-name="Layer 1"><rect x="7.48" y="12.28" width="115" height="115" rx="57.5" ry="57.5" style="fill:#ffab00"/><path d="M29.68,127.31V57.94H19.27V47.37H29.68V39a37.58,37.58,0,0,1,1.59-11.41,23.42,23.42,0,0,1,4.54-8.38A18.8,18.8,0,0,1,43.06,14a25.38,25.38,0,0,1,9.6-1.74,26.24,26.24,0,0,1,7.9,1.26L59.9,24.62A25.34,25.34,0,0,0,57,24.14a27.68,27.68,0,0,0-3.1-.18,9.7,9.7,0,0,0-8.24,3.88Q42.76,31.71,42.76,39v8.42H56.43V57.94H42.76v69.37Z" style="fill:#689f38"/><path d="M104.7,117.44a30.42,30.42,0,0,1-.85,6.94,36.58,36.58,0,0,1-2.51,7.17,41.52,41.52,0,0,1-4,6.8,30.39,30.39,0,0,1-5.47,5.76l-7.76-5.32a42.53,42.53,0,0,0,5.36-10,32,32,0,0,0,1.88-11.12V106.5H104.7ZM89.4,50.28a8.56,8.56,0,0,1,2.11-5.91Q93.61,42,97.82,42t6.39,2.36a8.39,8.39,0,0,1,2.18,5.91A7.93,7.93,0,0,1,104.21,56q-2.18,2.29-6.39,2.29T91.51,56A8.09,8.09,0,0,1,89.4,50.28Z" style="fill:#689f38"/></g></g></svg>