<svg xmlns="http://www.w3.org/2000/svg" viewBox="0 0 133.18 144.1"><title>Asset 3</title><g id="Layer_2" data-name="Layer 2"><g id="Layer_2-2" data-name="Layer 2"><rect width="133.18" height="143.16" style="fill:#e2ded9;opacity:0"/></g><g id="Layer_1-2" data-name="Layer 1"><rect x="9.09" y="12.28" width="115" height="115" rx="57.5" ry="57.5" style="fill:#ffab00"/><path d="M31.3,127.31V57.94H20.88V47.37H31.3V39a37.58,37.58,0,0,1,1.59-11.41,23.42,23.42,0,0,1,4.54-8.38A18.8,18.8,0,0,1,44.67,14a25.38,25.38,0,0,1,9.6-1.74,26.24,26.24,0,0,1,7.9,1.26l-.66,11.08a25.34,25.34,0,0,0-2.88-.48,27.68,27.68,0,0,0-3.1-.18,9.7,9.7,0,0,0-8.24,3.88Q44.37,31.71,44.37,39v8.42H58V57.94H44.37v69.37Z" style="fill:#f3e5f5"/><path d="M106.31,117.44a30.42,30.42,0,0,1-.85,6.94,36.58,36.58,0,0,1-2.51,7.17,41.52,41.52,0,0,1-4,6.8,30.39,30.39,0,0,1-5.47,5.76l-7.76-5.32a42.53,42.53,0,0,0,5.36-10,32,32,0,0,0,1.88-11.12V106.5h13.37ZM91,50.28a8.56,8.56,0,0,1,2.11-5.91Q95.23,42,99.44,42t6.39,2.36A8.39,8.39,0,0,1,108,50.28,7.93,7.93,0,0,1,105.83,56q-2.18,2.29-6.39,2.29T93.12,56A8.09,8.09,0,0,1,91,50.28Z" style="fill:#f3e5f5"/></g></g></svg>